<svg width="24" height="24" viewBox="0 0 24 24" fill="none" xmlns="http://www.w3.org/2000/svg">
<path d="M8.38439 2.47925C8.90949 2.32093 9.47298 2.34723 9.98104 2.55377C10.4891 2.76032 10.9111 3.13465 11.1768 3.61445L11.2668 3.79325L12.06 5.55845C12.3011 6.09423 12.3793 6.68906 12.285 7.26897C12.1907 7.84888 11.928 8.38826 11.5296 8.82005L11.3712 8.97845L10.1184 10.146C9.8928 10.3596 10.062 11.1864 10.8792 12.6C11.6124 13.872 12.2112 14.466 12.504 14.4984H12.5556L12.6192 14.4864L15.0792 13.734C15.4098 13.6327 15.7626 13.6286 16.0955 13.7225C16.4283 13.8163 16.727 14.0041 16.956 14.2632L17.0664 14.4012L18.6936 16.6572C19.0129 17.0993 19.1721 17.6369 19.1451 18.1816C19.118 18.7262 18.9063 19.2454 18.5448 19.6536L18.3984 19.8048L17.7468 20.4216C17.1627 20.9748 16.4322 21.3485 15.6419 21.4985C14.8516 21.6485 14.0349 21.5683 13.2888 21.2676C10.9668 20.3316 8.85719 18.1932 6.94079 14.874C5.02079 11.5464 4.2228 8.64605 4.5792 6.16205C4.68715 5.41103 4.99653 4.70328 5.47446 4.114C5.9524 3.52471 6.58104 3.0759 7.2936 2.81525L7.52519 2.73845L8.38439 2.47925Z" fill="white"/>
</svg>
