<svg width="50" height="50" viewBox="0 0 50 50" fill="none" xmlns="http://www.w3.org/2000/svg">
<path opacity="0.1" fill-rule="evenodd" clip-rule="evenodd" d="M25 50C38.8071 50 50 38.8071 50 25C50 11.1929 38.8071 0 25 0C11.1929 0 0 11.1929 0 25C0 38.8071 11.1929 50 25 50Z" fill="#1EA59A"/>
<path fill-rule="evenodd" clip-rule="evenodd" d="M25.825 15.025L33.025 22.75C33.25 23.05 33.4 23.425 33.4 23.8V32.5C33.4 33.325 32.725 34 31.9 34H17.5C16.675 34 16 33.325 16 32.5V23.8C16 23.425 16.15 23.05 16.375 22.75L23.575 15.025C24.175 14.425 25.075 14.35 25.675 14.95C25.75 15.025 25.75 15.025 25.825 15.025Z" stroke="#1EA59A" stroke-width="2" stroke-linecap="round" stroke-linejoin="round"/>
<path fill-rule="evenodd" clip-rule="evenodd" d="M24.7 27.1C26.0669 27.1 27.175 25.9919 27.175 24.625C27.175 23.2581 26.0669 22.15 24.7 22.15C23.3331 22.15 22.225 23.2581 22.225 24.625C22.225 25.9919 23.3331 27.1 24.7 27.1Z" stroke="#1EA59A" stroke-width="2" stroke-linecap="round" stroke-linejoin="round"/>
<path d="M23.65 30.175H25.75" stroke="#1EA59A" stroke-width="2" stroke-linecap="round" stroke-linejoin="round"/>
</svg>
