<svg width="50" height="50" viewBox="0 0 50 50" fill="none" xmlns="http://www.w3.org/2000/svg">
<path opacity="0.1" fill-rule="evenodd" clip-rule="evenodd" d="M25 50C38.8071 50 50 38.8071 50 25C50 11.1929 38.8071 0 25 0C11.1929 0 0 11.1929 0 25C0 38.8071 11.1929 50 25 50Z" fill="#1EA59A"/>
<path d="M33.175 21.85C34.525 21.55 35.5 20.35 35.5 19C35.5 17.35 34.15 16 32.575 16C31.45 16 30.475 16.675 29.95 17.575" stroke="#1EA59A" stroke-width="2" stroke-linecap="round" stroke-linejoin="round"/>
<path d="M20.125 17.65C19.6 16.675 18.625 16 17.425 16C15.85 16 14.5 17.35 14.5 18.925C14.5 20.35 15.55 21.55 16.9 21.85" stroke="#1EA59A" stroke-width="2" stroke-linecap="round" stroke-linejoin="round"/>
<path d="M24.475 20.2V25.075" stroke="#1EA59A" stroke-width="2" stroke-linecap="round" stroke-linejoin="round"/>
<path d="M27.475 25.075H24.475" stroke="#1EA59A" stroke-width="2" stroke-linecap="round" stroke-linejoin="round"/>
<path fill-rule="evenodd" clip-rule="evenodd" d="M33.025 24.025C33.025 28.45 29.425 32.05 25 32.05C20.5 32.125 16.9 28.525 16.9 24.025C16.9 19.6 20.5 16 24.925 16C29.425 16 33.025 19.6 33.025 24.025Z" stroke="#1EA59A" stroke-width="2" stroke-linecap="round" stroke-linejoin="round"/>
<path d="M20.7357 30.7856L19.1607 34.7606" stroke="#1EA59A" stroke-width="2" stroke-linecap="round" stroke-linejoin="round"/>
<path d="M30.0357 30.7856L31.6107 34.7606" stroke="#1EA59A" stroke-width="2" stroke-linecap="round" stroke-linejoin="round"/>
</svg>
