<svg width="50" height="50" viewBox="0 0 50 50" fill="none" xmlns="http://www.w3.org/2000/svg">
<path opacity="0.1" fill-rule="evenodd" clip-rule="evenodd" d="M25 50C38.8071 50 50 38.8071 50 25C50 11.1929 38.8071 0 25 0C11.1929 0 0 11.1929 0 25C0 38.8071 11.1929 50 25 50Z" fill="#1EA59A"/>
<path d="M20.5 34.75H31.375H33.175C34.075 34.75 34.75 34.075 34.75 33.25C34.75 33.175 34.75 33.175 34.75 33.1L33.4 18.1C33.325 17.35 32.65 16.75 31.825 16.75" stroke="#1EA59A" stroke-width="2" stroke-linecap="round" stroke-linejoin="round"/>
<path fill-rule="evenodd" clip-rule="evenodd" d="M18.85 16.75H31.75C32.575 16.75 33.25 17.425 33.25 18.25C33.25 18.325 33.25 18.325 33.25 18.4L31.9 33.4C31.825 34.15 31.15 34.75 30.4 34.75H17.5C16.675 34.75 16 34.075 16 33.25C16 33.175 16 33.175 16 33.1L17.35 18.1C17.425 17.35 18.025 16.75 18.85 16.75Z" stroke="#1EA59A" stroke-width="2" stroke-linecap="round" stroke-linejoin="round"/>
<path d="M22.75 30.625H25.9" stroke="#1EA59A" stroke-width="2" stroke-linecap="round" stroke-linejoin="round"/>
<path d="M22 24.7751L23.35 26.8751L27.625 22.6001" stroke="#1EA59A" stroke-width="2" stroke-linecap="round" stroke-linejoin="round"/>
<path d="M22 19C21.55 19 21.25 18.625 21.25 18.175V16.075C21.25 15.625 21.55 15.25 22 15.25C22.45 15.25 22.75 15.625 22.75 16.075" stroke="#1EA59A" stroke-width="2" stroke-linecap="round" stroke-linejoin="round"/>
<path d="M28 19C27.55 19 27.25 18.625 27.25 18.175V16.075C27.25 15.625 27.55 15.25 28 15.25C28.45 15.25 28.75 15.625 28.75 16.075" stroke="#1EA59A" stroke-width="2" stroke-linecap="round" stroke-linejoin="round"/>
</svg>
