<svg width="16" height="16" viewBox="0 0 16 16" fill="none" xmlns="http://www.w3.org/2000/svg">
<path d="M12.8 4.79999H2.80001V4.39999L11.6 3.69599V4.39999H12.8V3.19999C12.8 2.31999 12.0872 1.70239 11.2168 1.82639L3.18401 2.97359C2.31281 3.09839 1.60001 3.91999 1.60001 4.79999V12.8C1.60001 13.2243 1.76858 13.6313 2.06864 13.9314C2.36869 14.2314 2.77566 14.4 3.20001 14.4H12.8C13.2244 14.4 13.6313 14.2314 13.9314 13.9314C14.2314 13.6313 14.4 13.2243 14.4 12.8V6.39999C14.4 5.97564 14.2314 5.56868 13.9314 5.26862C13.6313 4.96856 13.2244 4.79999 12.8 4.79999ZM11.6 10.4048C11.4424 10.4047 11.2863 10.3736 11.1407 10.3133C10.995 10.2529 10.8627 10.1644 10.7513 10.0529C10.6399 9.94141 10.5515 9.80905 10.4912 9.66339C10.431 9.51773 10.4 9.36163 10.4 9.20399C10.4001 9.04635 10.4312 8.89027 10.4915 8.74465C10.5519 8.59903 10.6404 8.46673 10.7519 8.3553C10.8634 8.24387 10.9957 8.15549 11.1414 8.09521C11.2871 8.03493 11.4432 8.00394 11.6008 8.00399C11.9192 8.0041 12.2245 8.13067 12.4495 8.35586C12.6745 8.58105 12.8009 8.88642 12.8008 9.20479C12.8007 9.52315 12.6741 9.82844 12.4489 10.0535C12.2237 10.2785 11.9184 10.4049 11.6 10.4048Z" fill="#047857"/>
</svg>
